<svg width="32" height="32" viewBox="0 0 32 32" xmlns="http://www.w3.org/2000/svg">
  <defs>
    <linearGradient id="sacredGradient" x1="0%" y1="0%" x2="100%" y2="100%">
      <stop offset="0%" style="stop-color:#9932CC;stop-opacity:1" />
      <stop offset="50%" style="stop-color:#4169E1;stop-opacity:1" />
      <stop offset="100%" style="stop-color:#00CED1;stop-opacity:1" />
    </linearGradient>
    <linearGradient id="innerGradient" x1="0%" y1="0%" x2="100%" y2="100%">
      <stop offset="0%" style="stop-color:#FFD700;stop-opacity:0.8" />
      <stop offset="100%" style="stop-color:#FFA500;stop-opacity:0.6" />
    </linearGradient>
  </defs>

  <!-- Outer Circle -->
  <circle cx="16" cy="16" r="14" fill="none" stroke="url(#sacredGradient)" stroke-width="1.5"/>

  <!-- Inner Sacred Geometry -->
  <g transform="translate(16,16)">
    <!-- Central Circle -->
    <circle cx="0" cy="0" r="2" fill="url(#innerGradient)"/>

    <!-- Petals/Circles around center -->
    <circle cx="0" cy="-6" r="1.5" fill="url(#sacredGradient)" opacity="0.8"/>
    <circle cx="5.2" cy="-3" r="1.5" fill="url(#sacredGradient)" opacity="0.8"/>
    <circle cx="5.2" cy="3" r="1.5" fill="url(#sacredGradient)" opacity="0.8"/>
    <circle cx="0" cy="6" r="1.5" fill="url(#sacredGradient)" opacity="0.8"/>
    <circle cx="-5.2" cy="3" r="1.5" fill="url(#sacredGradient)" opacity="0.8"/>
    <circle cx="-5.2" cy="-3" r="1.5" fill="url(#sacredGradient)" opacity="0.8"/>

    <!-- Connecting lines for Flower of Life -->
    <g stroke="url(#sacredGradient)" stroke-width="0.8" opacity="0.6">
      <line x1="0" y1="-6" x2="5.2" y2="-3"/>
      <line x1="5.2" y1="-3" x2="5.2" y2="3"/>
      <line x1="5.2" y1="3" x2="0" y2="6"/>
      <line x1="0" y1="6" x2="-5.2" y2="3"/>
      <line x1="-5.2" y1="3" x2="-5.2" y2="-3"/>
      <line x1="-5.2" y1="-3" x2="0" y2="-6"/>
    </g>
  </g>

  <!-- 3D Depth Lines -->
  <g stroke="url(#sacredGradient)" stroke-width="0.3" opacity="0.4">
    <line x1="2" y1="2" x2="4" y2="0"/>
    <line x1="30" y1="2" x2="28" y2="0"/>
    <line x1="2" y1="30" x2="4" y2="28"/>
    <line x1="30" y1="30" x2="28" y2="28"/>
  </g>
</svg>